solid OpenSCAD_Model
  facet normal 0.207919 0.978146 -0
    outer loop
      vertex 24.2705 28.5317 0
      vertex 18.1359 29.8357 5
      vertex 24.2705 28.5317 5
    endloop
  endfacet
  facet normal 0.207919 0.978146 0
    outer loop
      vertex 18.1359 29.8357 5
      vertex 24.2705 28.5317 0
      vertex 18.1359 29.8357 0
    endloop
  endfacet
  facet normal 0.207919 0.978146 -0
    outer loop
      vertex 24.2705 28.5317 145
      vertex 18.1359 29.8357 160
      vertex 24.2705 28.5317 160
    endloop
  endfacet
  facet normal 0.207919 0.978146 0
    outer loop
      vertex 18.1359 29.8357 160
      vertex 24.2705 28.5317 145
      vertex 18.1359 29.8357 145
    endloop
  endfacet
  facet normal -0.95106 0.309008 0
    outer loop
      vertex -44.3444 6.23735 0
      vertex -42.4064 12.2021 180
      vertex -42.4064 12.2021 0
    endloop
  endfacet
  facet normal -0.95106 0.309008 0
    outer loop
      vertex -42.4064 12.2021 180
      vertex -44.3444 6.23735 0
      vertex -44.3444 6.23735 180
    endloop
  endfacet
  facet normal 0.994521 -0.104533 0
    outer loop
      vertex 44.3444 -6.23735 180
      vertex 45 0 0
      vertex 45 0 180
    endloop
  endfacet
  facet normal 0.994521 -0.104533 0
    outer loop
      vertex 45 0 0
      vertex 44.3444 -6.23735 180
      vertex 44.3444 -6.23735 0
    endloop
  endfacet
  facet normal -0.743138 0.669138 0
    outer loop
      vertex -39.2705 17.6336 0
      vertex -35.0739 22.2943 180
      vertex -35.0739 22.2943 0
    endloop
  endfacet
  facet normal -0.743138 0.669138 0
    outer loop
      vertex -35.0739 22.2943 180
      vertex -39.2705 17.6336 0
      vertex -39.2705 17.6336 180
    endloop
  endfacet
  facet normal 0 1 -0
    outer loop
      vertex 18.1359 29.8357 0
      vertex -18.1359 29.8357 5
      vertex 18.1359 29.8357 5
    endloop
  endfacet
  facet normal 0 1 0
    outer loop
      vertex -18.1359 29.8357 5
      vertex 18.1359 29.8357 0
      vertex -18.1359 29.8357 0
    endloop
  endfacet
  facet normal 0 1 -0
    outer loop
      vertex 18.1359 29.8357 145
      vertex -18.1359 29.8357 160
      vertex 18.1359 29.8357 160
    endloop
  endfacet
  facet normal 0 1 0
    outer loop
      vertex -18.1359 29.8357 160
      vertex 18.1359 29.8357 145
      vertex -18.1359 29.8357 145
    endloop
  endfacet
  facet normal -0.866024 0.500003 0
    outer loop
      vertex -42.4064 12.2021 0
      vertex -39.2705 17.6336 180
      vertex -39.2705 17.6336 0
    endloop
  endfacet
  facet normal -0.866024 0.500003 0
    outer loop
      vertex -39.2705 17.6336 180
      vertex -42.4064 12.2021 0
      vertex -42.4064 12.2021 180
    endloop
  endfacet
  facet normal -0.587795 -0.80901 0
    outer loop
      vertex -35.0739 -22.2943 0
      vertex -30 -25.9808 5
      vertex -35.0739 -22.2943 5
    endloop
  endfacet
  facet normal -0.587795 -0.80901 -0
    outer loop
      vertex -30 -25.9808 5
      vertex -35.0739 -22.2943 0
      vertex -30 -25.9808 0
    endloop
  endfacet
  facet normal -0.587795 -0.80901 0
    outer loop
      vertex -35.0739 -22.2943 155
      vertex -30 -25.9808 180
      vertex -35.0739 -22.2943 180
    endloop
  endfacet
  facet normal -0.587795 -0.80901 -0
    outer loop
      vertex -30 -25.9808 180
      vertex -35.0739 -22.2943 155
      vertex -30 -25.9808 155
    endloop
  endfacet
  facet normal 0.951056 -0.309017 0
    outer loop
      vertex 44.3444 -6.23735 180
      vertex 42.472 -12 155
      vertex 44.3444 -6.23735 0
    endloop
  endfacet
  facet normal 0.95106 -0.309008 -2.43762e-06
    outer loop
      vertex 42.4064 -12.2021 180
      vertex 42.472 -12 155
      vertex 44.3444 -6.23735 180
    endloop
  endfacet
  facet normal 0.951148 -0.308735 0
    outer loop
      vertex 42.472 -12 155
      vertex 42.4064 -12.2021 180
      vertex 42.4064 -12.2021 155
    endloop
  endfacet
  facet normal 0.951056 -0.309017 0
    outer loop
      vertex 42.472 -12 5
      vertex 44.3444 -6.23735 0
      vertex 42.472 -12 155
    endloop
  endfacet
  facet normal 0.951148 -0.308735 0
    outer loop
      vertex 42.4064 -12.2021 0
      vertex 42.472 -12 5
      vertex 42.4064 -12.2021 5
    endloop
  endfacet
  facet normal 0.95106 -0.309008 1.21881e-05
    outer loop
      vertex 42.472 -12 5
      vertex 42.4064 -12.2021 0
      vertex 44.3444 -6.23735 0
    endloop
  endfacet
  facet normal 0.994521 0.104533 0
    outer loop
      vertex 45 0 180
      vertex 44.3444 6.23735 0
      vertex 44.3444 6.23735 180
    endloop
  endfacet
  facet normal 0.994521 0.104533 0
    outer loop
      vertex 44.3444 6.23735 0
      vertex 45 0 180
      vertex 45 0 0
    endloop
  endfacet
  facet normal -0.994521 0.104533 0
    outer loop
      vertex -45 0 0
      vertex -44.3444 6.23735 180
      vertex -44.3444 6.23735 0
    endloop
  endfacet
  facet normal -0.994521 0.104533 0
    outer loop
      vertex -44.3444 6.23735 180
      vertex -45 0 0
      vertex -45 0 180
    endloop
  endfacet
  facet normal 0.406732 0.913548 -0
    outer loop
      vertex 30 25.9808 0
      vertex 24.2705 28.5317 5
      vertex 30 25.9808 5
    endloop
  endfacet
  facet normal 0.406732 0.913548 0
    outer loop
      vertex 24.2705 28.5317 5
      vertex 30 25.9808 0
      vertex 24.2705 28.5317 0
    endloop
  endfacet
  facet normal 0.406732 0.913548 -0
    outer loop
      vertex 30 25.9808 145
      vertex 24.2705 28.5317 160
      vertex 30 25.9808 160
    endloop
  endfacet
  facet normal 0.406732 0.913548 0
    outer loop
      vertex 24.2705 28.5317 160
      vertex 30 25.9808 145
      vertex 24.2705 28.5317 145
    endloop
  endfacet
  facet normal 0.866024 0.500003 0
    outer loop
      vertex 42.4064 12.2021 180
      vertex 39.2705 17.6336 0
      vertex 39.2705 17.6336 180
    endloop
  endfacet
  facet normal 0.866024 0.500003 0
    outer loop
      vertex 39.2705 17.6336 0
      vertex 42.4064 12.2021 180
      vertex 42.4064 12.2021 0
    endloop
  endfacet
  facet normal -0.207919 0.978146 0
    outer loop
      vertex -18.1359 29.8357 0
      vertex -24.2705 28.5317 5
      vertex -18.1359 29.8357 5
    endloop
  endfacet
  facet normal -0.207919 0.978146 0
    outer loop
      vertex -24.2705 28.5317 5
      vertex -18.1359 29.8357 0
      vertex -24.2705 28.5317 0
    endloop
  endfacet
  facet normal -0.207919 0.978146 0
    outer loop
      vertex -18.1359 29.8357 145
      vertex -24.2705 28.5317 160
      vertex -18.1359 29.8357 160
    endloop
  endfacet
  facet normal -0.207919 0.978146 0
    outer loop
      vertex -24.2705 28.5317 160
      vertex -18.1359 29.8357 145
      vertex -24.2705 28.5317 145
    endloop
  endfacet
  facet normal -0.406732 0.913548 0
    outer loop
      vertex -24.2705 28.5317 0
      vertex -30 25.9808 5
      vertex -24.2705 28.5317 5
    endloop
  endfacet
  facet normal -0.406732 0.913548 0
    outer loop
      vertex -30 25.9808 5
      vertex -24.2705 28.5317 0
      vertex -30 25.9808 0
    endloop
  endfacet
  facet normal -0.406732 0.913548 0
    outer loop
      vertex -24.2705 28.5317 145
      vertex -30 25.9808 160
      vertex -24.2705 28.5317 160
    endloop
  endfacet
  facet normal -0.406732 0.913548 0
    outer loop
      vertex -30 25.9808 160
      vertex -24.2705 28.5317 145
      vertex -30 25.9808 145
    endloop
  endfacet
  facet normal -0.587795 0.80901 0
    outer loop
      vertex -30 25.9808 160
      vertex -35.0739 22.2943 180
      vertex -30 25.9808 180
    endloop
  endfacet
  facet normal -0.587795 0.80901 0
    outer loop
      vertex -30 25.9808 145
      vertex -35.0739 22.2943 180
      vertex -30 25.9808 160
    endloop
  endfacet
  facet normal -0.587795 0.80901 0
    outer loop
      vertex -35.0739 22.2943 0
      vertex -30 25.9808 145
      vertex -30 25.9808 5
    endloop
  endfacet
  facet normal -0.587795 0.80901 0
    outer loop
      vertex -35.0739 22.2943 0
      vertex -30 25.9808 5
      vertex -30 25.9808 0
    endloop
  endfacet
  facet normal -0.587795 0.80901 0
    outer loop
      vertex -30 25.9808 145
      vertex -35.0739 22.2943 0
      vertex -35.0739 22.2943 180
    endloop
  endfacet
  facet normal 0 -1 0
    outer loop
      vertex -18.1359 -29.8357 155
      vertex 18.1359 -29.8357 180
      vertex -18.1359 -29.8357 180
    endloop
  endfacet
  facet normal 0 -1 -0
    outer loop
      vertex 18.1359 -29.8357 180
      vertex -18.1359 -29.8357 155
      vertex 18.1359 -29.8357 155
    endloop
  endfacet
  facet normal 0 -1 0
    outer loop
      vertex -18.1359 -29.8357 0
      vertex 18.1359 -29.8357 5
      vertex -18.1359 -29.8357 5
    endloop
  endfacet
  facet normal 0 -1 -0
    outer loop
      vertex 18.1359 -29.8357 5
      vertex -18.1359 -29.8357 0
      vertex 18.1359 -29.8357 0
    endloop
  endfacet
  facet normal -0.743138 -0.669138 0
    outer loop
      vertex -35.0739 -22.2943 155
      vertex -39.2705 -17.6336 180
      vertex -39.2705 -17.6336 155
    endloop
  endfacet
  facet normal -0.743138 -0.669138 0
    outer loop
      vertex -39.2705 -17.6336 180
      vertex -35.0739 -22.2943 155
      vertex -35.0739 -22.2943 180
    endloop
  endfacet
  facet normal -0.743138 -0.669138 0
    outer loop
      vertex -35.0739 -22.2943 0
      vertex -39.2705 -17.6336 5
      vertex -39.2705 -17.6336 0
    endloop
  endfacet
  facet normal -0.743138 -0.669138 0
    outer loop
      vertex -39.2705 -17.6336 5
      vertex -35.0739 -22.2943 0
      vertex -35.0739 -22.2943 5
    endloop
  endfacet
  facet normal 0.207919 -0.978146 0
    outer loop
      vertex 18.1359 -29.8357 0
      vertex 24.2705 -28.5317 5
      vertex 18.1359 -29.8357 5
    endloop
  endfacet
  facet normal 0.207919 -0.978146 0
    outer loop
      vertex 24.2705 -28.5317 5
      vertex 18.1359 -29.8357 0
      vertex 24.2705 -28.5317 0
    endloop
  endfacet
  facet normal 0.207919 -0.978146 0
    outer loop
      vertex 18.1359 -29.8357 155
      vertex 24.2705 -28.5317 180
      vertex 18.1359 -29.8357 180
    endloop
  endfacet
  facet normal 0.207919 -0.978146 0
    outer loop
      vertex 24.2705 -28.5317 180
      vertex 18.1359 -29.8357 155
      vertex 24.2705 -28.5317 155
    endloop
  endfacet
  facet normal 0.866024 -0.500003 0
    outer loop
      vertex 39.2705 -17.6336 180
      vertex 42.4064 -12.2021 155
      vertex 42.4064 -12.2021 180
    endloop
  endfacet
  facet normal 0.866024 -0.500003 0
    outer loop
      vertex 42.4064 -12.2021 155
      vertex 39.2705 -17.6336 180
      vertex 39.2705 -17.6336 155
    endloop
  endfacet
  facet normal 0.866024 -0.500003 0
    outer loop
      vertex 39.2705 -17.6336 5
      vertex 42.4064 -12.2021 0
      vertex 42.4064 -12.2021 5
    endloop
  endfacet
  facet normal 0.866024 -0.500003 0
    outer loop
      vertex 42.4064 -12.2021 0
      vertex 39.2705 -17.6336 5
      vertex 39.2705 -17.6336 0
    endloop
  endfacet
  facet normal 0.743138 0.669138 0
    outer loop
      vertex 39.2705 17.6336 180
      vertex 35.0739 22.2943 0
      vertex 35.0739 22.2943 180
    endloop
  endfacet
  facet normal 0.743138 0.669138 0
    outer loop
      vertex 35.0739 22.2943 0
      vertex 39.2705 17.6336 180
      vertex 39.2705 17.6336 0
    endloop
  endfacet
  facet normal 0.587795 0.80901 0
    outer loop
      vertex 35.0739 22.2943 180
      vertex 30 25.9808 160
      vertex 30 25.9808 180
    endloop
  endfacet
  facet normal 0.587795 0.80901 0
    outer loop
      vertex 35.0739 22.2943 180
      vertex 30 25.9808 145
      vertex 30 25.9808 160
    endloop
  endfacet
  facet normal 0.587795 0.80901 -0
    outer loop
      vertex 35.0739 22.2943 0
      vertex 30 25.9808 145
      vertex 35.0739 22.2943 180
    endloop
  endfacet
  facet normal 0.587795 0.80901 0
    outer loop
      vertex 30 25.9808 145
      vertex 35.0739 22.2943 0
      vertex 30 25.9808 5
    endloop
  endfacet
  facet normal 0.587795 0.80901 0
    outer loop
      vertex 30 25.9808 5
      vertex 35.0739 22.2943 0
      vertex 30 25.9808 0
    endloop
  endfacet
  facet normal 0.95106 0.309008 0
    outer loop
      vertex 44.3444 6.23735 180
      vertex 42.4064 12.2021 0
      vertex 42.4064 12.2021 180
    endloop
  endfacet
  facet normal 0.95106 0.309008 0
    outer loop
      vertex 42.4064 12.2021 0
      vertex 44.3444 6.23735 180
      vertex 44.3444 6.23735 0
    endloop
  endfacet
  facet normal -0 0 1
    outer loop
      vertex -35.0739 22.2943 180
      vertex -30 20 180
      vertex -30 25.9808 180
    endloop
  endfacet
  facet normal 0 0 1
    outer loop
      vertex -39.2705 17.6336 180
      vertex -30 20 180
      vertex -35.0739 22.2943 180
    endloop
  endfacet
  facet normal 0 0 1
    outer loop
      vertex -30 20 180
      vertex -35.0739 -22.2943 180
      vertex -30 -25.9808 180
    endloop
  endfacet
  facet normal 0 0 1
    outer loop
      vertex -42.4064 12.2021 180
      vertex -30 20 180
      vertex -39.2705 17.6336 180
    endloop
  endfacet
  facet normal 0 0 1
    outer loop
      vertex -30 20 180
      vertex -39.2705 -17.6336 180
      vertex -35.0739 -22.2943 180
    endloop
  endfacet
  facet normal 0 0 1
    outer loop
      vertex -44.3444 6.23735 180
      vertex -30 20 180
      vertex -42.4064 12.2021 180
    endloop
  endfacet
  facet normal 0 0 1
    outer loop
      vertex -30 20 180
      vertex -42.4064 -12.2021 180
      vertex -39.2705 -17.6336 180
    endloop
  endfacet
  facet normal 0 0 1
    outer loop
      vertex -45 0 180
      vertex -30 20 180
      vertex -44.3444 6.23735 180
    endloop
  endfacet
  facet normal 0 0 1
    outer loop
      vertex -30 20 180
      vertex -44.3444 -6.23735 180
      vertex -42.4064 -12.2021 180
    endloop
  endfacet
  facet normal 0 0 1
    outer loop
      vertex -30 20 180
      vertex -45 0 180
      vertex -44.3444 -6.23735 180
    endloop
  endfacet
  facet normal 0 0 1
    outer loop
      vertex 10 0 180
      vertex 45 0 180
      vertex 44.3444 6.23735 180
    endloop
  endfacet
  facet normal 0 0 1
    outer loop
      vertex 30 20 180
      vertex 44.3444 6.23735 180
      vertex 42.4064 12.2021 180
    endloop
  endfacet
  facet normal 0 0 1
    outer loop
      vertex 45 0 180
      vertex 10 0 180
      vertex 44.3444 -6.23735 180
    endloop
  endfacet
  facet normal 0 0 1
    outer loop
      vertex 30 20 180
      vertex 42.4064 12.2021 180
      vertex 39.2705 17.6336 180
    endloop
  endfacet
  facet normal 0 0 1
    outer loop
      vertex 44.3444 6.23735 180
      vertex 30 20 180
      vertex 10 0 180
    endloop
  endfacet
  facet normal -0 0 1
    outer loop
      vertex 30 20 180
      vertex 39.2705 17.6336 180
      vertex 35.0739 22.2943 180
    endloop
  endfacet
  facet normal -0 0 1
    outer loop
      vertex 9.78148 -2.07912 180
      vertex 44.3444 -6.23735 180
      vertex 10 0 180
    endloop
  endfacet
  facet normal 0 0 1
    outer loop
      vertex 30 20 180
      vertex 35.0739 22.2943 180
      vertex 30 25.9808 180
    endloop
  endfacet
  facet normal 0 0 1
    outer loop
      vertex 44.3444 -6.23735 180
      vertex 9.78148 -2.07912 180
      vertex 42.4064 -12.2021 180
    endloop
  endfacet
  facet normal 0 0 1
    outer loop
      vertex 42.4064 -12.2021 180
      vertex 9.78148 -2.07912 180
      vertex 39.2705 -17.6336 180
    endloop
  endfacet
  facet normal -0 0 1
    outer loop
      vertex 9.13545 -4.06737 180
      vertex 39.2705 -17.6336 180
      vertex 9.78148 -2.07912 180
    endloop
  endfacet
  facet normal 0 0 1
    outer loop
      vertex 35.0739 -22.2943 180
      vertex 9.13545 -4.06737 180
      vertex 30 -25.9808 180
    endloop
  endfacet
  facet normal 0 0 1
    outer loop
      vertex 39.2705 -17.6336 180
      vertex 9.13545 -4.06737 180
      vertex 35.0739 -22.2943 180
    endloop
  endfacet
  facet normal 0 0 1
    outer loop
      vertex 30 20 180
      vertex 9.78148 2.07912 180
      vertex 10 0 180
    endloop
  endfacet
  facet normal 0 0 1
    outer loop
      vertex 30 20 180
      vertex 9.13545 4.06737 180
      vertex 9.78148 2.07912 180
    endloop
  endfacet
  facet normal 0 0 1
    outer loop
      vertex 30 20 180
      vertex 8.09017 5.87785 180
      vertex 9.13545 4.06737 180
    endloop
  endfacet
  facet normal 0 0 1
    outer loop
      vertex 30 20 180
      vertex 6.69131 7.43145 180
      vertex 8.09017 5.87785 180
    endloop
  endfacet
  facet normal 0 0 1
    outer loop
      vertex 30 20 180
      vertex 5 8.66025 180
      vertex 6.69131 7.43145 180
    endloop
  endfacet
  facet normal 0 0 1
    outer loop
      vertex 30 20 180
      vertex 3.09017 9.51056 180
      vertex 5 8.66025 180
    endloop
  endfacet
  facet normal 0 0 1
    outer loop
      vertex 30 20 180
      vertex 1.04528 9.94522 180
      vertex 3.09017 9.51056 180
    endloop
  endfacet
  facet normal 0 0 1
    outer loop
      vertex 30 20 180
      vertex -1.04528 9.94522 180
      vertex 1.04528 9.94522 180
    endloop
  endfacet
  facet normal -0 0 1
    outer loop
      vertex -30 20 180
      vertex -1.04528 9.94522 180
      vertex 30 20 180
    endloop
  endfacet
  facet normal 0 0 1
    outer loop
      vertex -30 20 180
      vertex -10 0 180
      vertex -9.78148 2.07912 180
    endloop
  endfacet
  facet normal 0 0 1
    outer loop
      vertex -10 0 180
      vertex -24.2705 -28.5317 180
      vertex -18.1359 -29.8357 180
    endloop
  endfacet
  facet normal 0 0 1
    outer loop
      vertex -30 20 180
      vertex -9.78148 2.07912 180
      vertex -9.13545 4.06737 180
    endloop
  endfacet
  facet normal 0 0 1
    outer loop
      vertex -1.04528 9.94522 180
      vertex -30 20 180
      vertex -3.09017 9.51056 180
    endloop
  endfacet
  facet normal 0 0 1
    outer loop
      vertex -30 20 180
      vertex -5 8.66025 180
      vertex -3.09017 9.51056 180
    endloop
  endfacet
  facet normal 0 0 1
    outer loop
      vertex -30 20 180
      vertex -6.69131 7.43145 180
      vertex -5 8.66025 180
    endloop
  endfacet
  facet normal 0 0 1
    outer loop
      vertex -30 20 180
      vertex -8.09017 5.87785 180
      vertex -6.69131 7.43145 180
    endloop
  endfacet
  facet normal 0 0 1
    outer loop
      vertex -30 20 180
      vertex -9.13545 4.06737 180
      vertex -8.09017 5.87785 180
    endloop
  endfacet
  facet normal 0 0 1
    outer loop
      vertex -10 0 180
      vertex -30 20 180
      vertex -30 -25.9808 180
    endloop
  endfacet
  facet normal 0 0 1
    outer loop
      vertex -10 0 180
      vertex -30 -25.9808 180
      vertex -24.2705 -28.5317 180
    endloop
  endfacet
  facet normal -0 0 1
    outer loop
      vertex 8.09017 -5.87785 180
      vertex 30 -25.9808 180
      vertex 9.13545 -4.06737 180
    endloop
  endfacet
  facet normal 0 0 1
    outer loop
      vertex 30 -25.9808 180
      vertex 8.09017 -5.87785 180
      vertex 24.2705 -28.5317 180
    endloop
  endfacet
  facet normal 0 0 1
    outer loop
      vertex 24.2705 -28.5317 180
      vertex 8.09017 -5.87785 180
      vertex 18.1359 -29.8357 180
    endloop
  endfacet
  facet normal -0 0 1
    outer loop
      vertex 6.69131 -7.43145 180
      vertex 18.1359 -29.8357 180
      vertex 8.09017 -5.87785 180
    endloop
  endfacet
  facet normal -0 0 1
    outer loop
      vertex 5 -8.66025 180
      vertex 18.1359 -29.8357 180
      vertex 6.69131 -7.43145 180
    endloop
  endfacet
  facet normal -0 0 1
    outer loop
      vertex 3.09017 -9.51056 180
      vertex 18.1359 -29.8357 180
      vertex 5 -8.66025 180
    endloop
  endfacet
  facet normal -0 0 1
    outer loop
      vertex 1.04528 -9.94522 180
      vertex 18.1359 -29.8357 180
      vertex 3.09017 -9.51056 180
    endloop
  endfacet
  facet normal -0 0 1
    outer loop
      vertex -1.04528 -9.94522 180
      vertex 18.1359 -29.8357 180
      vertex 1.04528 -9.94522 180
    endloop
  endfacet
  facet normal 0 0 1
    outer loop
      vertex -18.1359 -29.8357 180
      vertex -1.04528 -9.94522 180
      vertex -3.09017 -9.51056 180
    endloop
  endfacet
  facet normal 0 0 1
    outer loop
      vertex -18.1359 -29.8357 180
      vertex -3.09017 -9.51056 180
      vertex -5 -8.66025 180
    endloop
  endfacet
  facet normal 0 0 1
    outer loop
      vertex -18.1359 -29.8357 180
      vertex -5 -8.66025 180
      vertex -6.69131 -7.43145 180
    endloop
  endfacet
  facet normal 0 0 1
    outer loop
      vertex -1.04528 -9.94522 180
      vertex -18.1359 -29.8357 180
      vertex 18.1359 -29.8357 180
    endloop
  endfacet
  facet normal 0 0 1
    outer loop
      vertex -8.09017 -5.87785 180
      vertex -18.1359 -29.8357 180
      vertex -6.69131 -7.43145 180
    endloop
  endfacet
  facet normal 0 0 1
    outer loop
      vertex -9.13545 -4.06737 180
      vertex -18.1359 -29.8357 180
      vertex -8.09017 -5.87785 180
    endloop
  endfacet
  facet normal 0 0 1
    outer loop
      vertex -9.78148 -2.07912 180
      vertex -18.1359 -29.8357 180
      vertex -9.13545 -4.06737 180
    endloop
  endfacet
  facet normal 0 0 1
    outer loop
      vertex -18.1359 -29.8357 180
      vertex -9.78148 -2.07912 180
      vertex -10 0 180
    endloop
  endfacet
  facet normal -0.406732 -0.913548 0
    outer loop
      vertex -30 -25.9808 0
      vertex -24.2705 -28.5317 5
      vertex -30 -25.9808 5
    endloop
  endfacet
  facet normal -0.406732 -0.913548 -0
    outer loop
      vertex -24.2705 -28.5317 5
      vertex -30 -25.9808 0
      vertex -24.2705 -28.5317 0
    endloop
  endfacet
  facet normal -0.406732 -0.913548 0
    outer loop
      vertex -30 -25.9808 155
      vertex -24.2705 -28.5317 180
      vertex -30 -25.9808 180
    endloop
  endfacet
  facet normal -0.406732 -0.913548 -0
    outer loop
      vertex -24.2705 -28.5317 180
      vertex -30 -25.9808 155
      vertex -24.2705 -28.5317 155
    endloop
  endfacet
  facet normal 0 0 -1
    outer loop
      vertex 10 0 0
      vertex 45 0 0
      vertex 44.3444 -6.23735 0
    endloop
  endfacet
  facet normal 0 0 -1
    outer loop
      vertex 9.78148 -2.07912 0
      vertex 44.3444 -6.23735 0
      vertex 42.4064 -12.2021 0
    endloop
  endfacet
  facet normal 0 0 -1
    outer loop
      vertex 45 0 0
      vertex 10 0 0
      vertex 44.3444 6.23735 0
    endloop
  endfacet
  facet normal 0 0 -1
    outer loop
      vertex 9.78148 -2.07912 0
      vertex 42.4064 -12.2021 0
      vertex 39.2705 -17.6336 0
    endloop
  endfacet
  facet normal 0 0 -1
    outer loop
      vertex 9.78148 2.07912 0
      vertex 44.3444 6.23735 0
      vertex 10 0 0
    endloop
  endfacet
  facet normal 0 0 -1
    outer loop
      vertex 9.13545 -4.06737 0
      vertex 39.2705 -17.6336 0
      vertex 35.0739 -22.2943 0
    endloop
  endfacet
  facet normal -0 0 -1
    outer loop
      vertex 44.3444 6.23735 0
      vertex 9.78148 2.07912 0
      vertex 42.4064 12.2021 0
    endloop
  endfacet
  facet normal 0 0 -1
    outer loop
      vertex 9.13545 -4.06737 0
      vertex 35.0739 -22.2943 0
      vertex 30 -25.9808 0
    endloop
  endfacet
  facet normal -0 0 -1
    outer loop
      vertex 42.4064 12.2021 0
      vertex 9.78148 2.07912 0
      vertex 39.2705 17.6336 0
    endloop
  endfacet
  facet normal 0 0 -1
    outer loop
      vertex 8.09017 -5.87785 0
      vertex 30 -25.9808 0
      vertex 24.2705 -28.5317 0
    endloop
  endfacet
  facet normal 0 0 -1
    outer loop
      vertex 9.13545 4.06737 0
      vertex 39.2705 17.6336 0
      vertex 9.78148 2.07912 0
    endloop
  endfacet
  facet normal 0 0 -1
    outer loop
      vertex 8.09017 -5.87785 0
      vertex 24.2705 -28.5317 0
      vertex 18.1359 -29.8357 0
    endloop
  endfacet
  facet normal -0 0 -1
    outer loop
      vertex 39.2705 17.6336 0
      vertex 9.13545 4.06737 0
      vertex 35.0739 22.2943 0
    endloop
  endfacet
  facet normal -0 0 -1
    outer loop
      vertex 35.0739 22.2943 0
      vertex 9.13545 4.06737 0
      vertex 30 25.9808 0
    endloop
  endfacet
  facet normal 0 0 -1
    outer loop
      vertex 44.3444 -6.23735 0
      vertex 9.78148 -2.07912 0
      vertex 10 0 0
    endloop
  endfacet
  facet normal 0 0 -1
    outer loop
      vertex 39.2705 -17.6336 0
      vertex 9.13545 -4.06737 0
      vertex 9.78148 -2.07912 0
    endloop
  endfacet
  facet normal 0 0 -1
    outer loop
      vertex 30 -25.9808 0
      vertex 8.09017 -5.87785 0
      vertex 9.13545 -4.06737 0
    endloop
  endfacet
  facet normal 0 0 -1
    outer loop
      vertex 18.1359 -29.8357 0
      vertex 6.69131 -7.43145 0
      vertex 8.09017 -5.87785 0
    endloop
  endfacet
  facet normal 0 0 -1
    outer loop
      vertex 18.1359 -29.8357 0
      vertex 5 -8.66025 0
      vertex 6.69131 -7.43145 0
    endloop
  endfacet
  facet normal 0 0 -1
    outer loop
      vertex 18.1359 -29.8357 0
      vertex 3.09017 -9.51056 0
      vertex 5 -8.66025 0
    endloop
  endfacet
  facet normal 0 0 -1
    outer loop
      vertex 18.1359 -29.8357 0
      vertex 1.04528 -9.94522 0
      vertex 3.09017 -9.51056 0
    endloop
  endfacet
  facet normal 0 0 -1
    outer loop
      vertex 18.1359 -29.8357 0
      vertex -1.04528 -9.94522 0
      vertex 1.04528 -9.94522 0
    endloop
  endfacet
  facet normal 0 0 -1
    outer loop
      vertex -18.1359 -29.8357 0
      vertex -1.04528 -9.94522 0
      vertex 18.1359 -29.8357 0
    endloop
  endfacet
  facet normal -0 0 -1
    outer loop
      vertex -1.04528 -9.94522 0
      vertex -18.1359 -29.8357 0
      vertex -3.09017 -9.51056 0
    endloop
  endfacet
  facet normal -0 0 -1
    outer loop
      vertex -3.09017 -9.51056 0
      vertex -18.1359 -29.8357 0
      vertex -5 -8.66025 0
    endloop
  endfacet
  facet normal -0 0 -1
    outer loop
      vertex -8.09017 -5.87785 0
      vertex -30 -25.9808 0
      vertex -9.13545 -4.06737 0
    endloop
  endfacet
  facet normal 0 0 -1
    outer loop
      vertex -30 -25.9808 0
      vertex -8.09017 -5.87785 0
      vertex -24.2705 -28.5317 0
    endloop
  endfacet
  facet normal 0 0 -1
    outer loop
      vertex -24.2705 -28.5317 0
      vertex -8.09017 -5.87785 0
      vertex -18.1359 -29.8357 0
    endloop
  endfacet
  facet normal -0 0 -1
    outer loop
      vertex -6.69131 -7.43145 0
      vertex -18.1359 -29.8357 0
      vertex -8.09017 -5.87785 0
    endloop
  endfacet
  facet normal -0 0 -1
    outer loop
      vertex -5 -8.66025 0
      vertex -18.1359 -29.8357 0
      vertex -6.69131 -7.43145 0
    endloop
  endfacet
  facet normal 0 0 -1
    outer loop
      vertex 8.09017 5.87785 0
      vertex 30 25.9808 0
      vertex 9.13545 4.06737 0
    endloop
  endfacet
  facet normal -0 0 -1
    outer loop
      vertex 30 25.9808 0
      vertex 8.09017 5.87785 0
      vertex 24.2705 28.5317 0
    endloop
  endfacet
  facet normal -0 0 -1
    outer loop
      vertex 24.2705 28.5317 0
      vertex 8.09017 5.87785 0
      vertex 18.1359 29.8357 0
    endloop
  endfacet
  facet normal 0 0 -1
    outer loop
      vertex 6.69131 7.43145 0
      vertex 18.1359 29.8357 0
      vertex 8.09017 5.87785 0
    endloop
  endfacet
  facet normal 0 0 -1
    outer loop
      vertex 5 8.66025 0
      vertex 18.1359 29.8357 0
      vertex 6.69131 7.43145 0
    endloop
  endfacet
  facet normal 0 0 -1
    outer loop
      vertex 3.09017 9.51056 0
      vertex 18.1359 29.8357 0
      vertex 5 8.66025 0
    endloop
  endfacet
  facet normal 0 0 -1
    outer loop
      vertex 1.04528 9.94522 0
      vertex 18.1359 29.8357 0
      vertex 3.09017 9.51056 0
    endloop
  endfacet
  facet normal 0 0 -1
    outer loop
      vertex -1.04528 9.94522 0
      vertex 18.1359 29.8357 0
      vertex 1.04528 9.94522 0
    endloop
  endfacet
  facet normal 0 0 -1
    outer loop
      vertex -18.1359 29.8357 0
      vertex -1.04528 9.94522 0
      vertex -3.09017 9.51056 0
    endloop
  endfacet
  facet normal 0 0 -1
    outer loop
      vertex -18.1359 29.8357 0
      vertex -3.09017 9.51056 0
      vertex -5 8.66025 0
    endloop
  endfacet
  facet normal 0 0 -1
    outer loop
      vertex -18.1359 29.8357 0
      vertex -5 8.66025 0
      vertex -6.69131 7.43145 0
    endloop
  endfacet
  facet normal 0 0 -1
    outer loop
      vertex -35.0739 -22.2943 0
      vertex -9.13545 -4.06737 0
      vertex -30 -25.9808 0
    endloop
  endfacet
  facet normal 0 0 -1
    outer loop
      vertex -1.04528 9.94522 0
      vertex -18.1359 29.8357 0
      vertex 18.1359 29.8357 0
    endloop
  endfacet
  facet normal 0 0 -1
    outer loop
      vertex -8.09017 5.87785 0
      vertex -18.1359 29.8357 0
      vertex -6.69131 7.43145 0
    endloop
  endfacet
  facet normal 0 0 -1
    outer loop
      vertex -30 25.9808 0
      vertex -8.09017 5.87785 0
      vertex -9.13545 4.06737 0
    endloop
  endfacet
  facet normal 0 0 -1
    outer loop
      vertex -39.2705 17.6336 0
      vertex -9.13545 4.06737 0
      vertex -9.78148 2.07912 0
    endloop
  endfacet
  facet normal 0 0 -1
    outer loop
      vertex -39.2705 -17.6336 0
      vertex -9.13545 -4.06737 0
      vertex -35.0739 -22.2943 0
    endloop
  endfacet
  facet normal -0 0 -1
    outer loop
      vertex -9.13545 -4.06737 0
      vertex -39.2705 -17.6336 0
      vertex -9.78148 -2.07912 0
    endloop
  endfacet
  facet normal 0 0 -1
    outer loop
      vertex -8.09017 5.87785 0
      vertex -24.2705 28.5317 0
      vertex -18.1359 29.8357 0
    endloop
  endfacet
  facet normal 0 0 -1
    outer loop
      vertex -42.4064 -12.2021 0
      vertex -9.78148 -2.07912 0
      vertex -39.2705 -17.6336 0
    endloop
  endfacet
  facet normal 0 0 -1
    outer loop
      vertex -8.09017 5.87785 0
      vertex -30 25.9808 0
      vertex -24.2705 28.5317 0
    endloop
  endfacet
  facet normal 0 0 -1
    outer loop
      vertex -44.3444 -6.23735 0
      vertex -9.78148 -2.07912 0
      vertex -42.4064 -12.2021 0
    endloop
  endfacet
  facet normal 0 0 -1
    outer loop
      vertex -9.13545 4.06737 0
      vertex -35.0739 22.2943 0
      vertex -30 25.9808 0
    endloop
  endfacet
  facet normal -0 0 -1
    outer loop
      vertex -9.78148 -2.07912 0
      vertex -44.3444 -6.23735 0
      vertex -10 0 0
    endloop
  endfacet
  facet normal 0 0 -1
    outer loop
      vertex -9.13545 4.06737 0
      vertex -39.2705 17.6336 0
      vertex -35.0739 22.2943 0
    endloop
  endfacet
  facet normal 0 0 -1
    outer loop
      vertex -45 0 0
      vertex -10 0 0
      vertex -44.3444 -6.23735 0
    endloop
  endfacet
  facet normal 0 0 -1
    outer loop
      vertex -9.78148 2.07912 0
      vertex -42.4064 12.2021 0
      vertex -39.2705 17.6336 0
    endloop
  endfacet
  facet normal 0 -0 -1
    outer loop
      vertex -44.3444 6.23735 0
      vertex -10 0 0
      vertex -45 0 0
    endloop
  endfacet
  facet normal 0 0 -1
    outer loop
      vertex -9.78148 2.07912 0
      vertex -44.3444 6.23735 0
      vertex -42.4064 12.2021 0
    endloop
  endfacet
  facet normal 0 0 -1
    outer loop
      vertex -10 0 0
      vertex -44.3444 6.23735 0
      vertex -9.78148 2.07912 0
    endloop
  endfacet
  facet normal -0.866024 -0.500003 0
    outer loop
      vertex -39.2705 -17.6336 155
      vertex -42.4064 -12.2021 180
      vertex -42.4064 -12.2021 155
    endloop
  endfacet
  facet normal -0.866024 -0.500003 0
    outer loop
      vertex -42.4064 -12.2021 180
      vertex -39.2705 -17.6336 155
      vertex -39.2705 -17.6336 180
    endloop
  endfacet
  facet normal -0.866024 -0.500003 0
    outer loop
      vertex -39.2705 -17.6336 0
      vertex -42.4064 -12.2021 5
      vertex -42.4064 -12.2021 0
    endloop
  endfacet
  facet normal -0.866024 -0.500003 0
    outer loop
      vertex -42.4064 -12.2021 5
      vertex -39.2705 -17.6336 0
      vertex -39.2705 -17.6336 5
    endloop
  endfacet
  facet normal 0.406732 -0.913548 0
    outer loop
      vertex 24.2705 -28.5317 0
      vertex 30 -25.9808 5
      vertex 24.2705 -28.5317 5
    endloop
  endfacet
  facet normal 0.406732 -0.913548 0
    outer loop
      vertex 30 -25.9808 5
      vertex 24.2705 -28.5317 0
      vertex 30 -25.9808 0
    endloop
  endfacet
  facet normal 0.406732 -0.913548 0
    outer loop
      vertex 24.2705 -28.5317 155
      vertex 30 -25.9808 180
      vertex 24.2705 -28.5317 180
    endloop
  endfacet
  facet normal 0.406732 -0.913548 0
    outer loop
      vertex 30 -25.9808 180
      vertex 24.2705 -28.5317 155
      vertex 30 -25.9808 155
    endloop
  endfacet
  facet normal 0.743138 -0.669138 0
    outer loop
      vertex 35.0739 -22.2943 180
      vertex 39.2705 -17.6336 155
      vertex 39.2705 -17.6336 180
    endloop
  endfacet
  facet normal 0.743138 -0.669138 0
    outer loop
      vertex 39.2705 -17.6336 155
      vertex 35.0739 -22.2943 180
      vertex 35.0739 -22.2943 155
    endloop
  endfacet
  facet normal 0.743138 -0.669138 0
    outer loop
      vertex 35.0739 -22.2943 5
      vertex 39.2705 -17.6336 0
      vertex 39.2705 -17.6336 5
    endloop
  endfacet
  facet normal 0.743138 -0.669138 0
    outer loop
      vertex 39.2705 -17.6336 0
      vertex 35.0739 -22.2943 5
      vertex 35.0739 -22.2943 0
    endloop
  endfacet
  facet normal 0.587795 -0.80901 0
    outer loop
      vertex 30 -25.9808 0
      vertex 35.0739 -22.2943 5
      vertex 30 -25.9808 5
    endloop
  endfacet
  facet normal 0.587795 -0.80901 0
    outer loop
      vertex 35.0739 -22.2943 5
      vertex 30 -25.9808 0
      vertex 35.0739 -22.2943 0
    endloop
  endfacet
  facet normal 0.587795 -0.80901 0
    outer loop
      vertex 30 -25.9808 155
      vertex 35.0739 -22.2943 180
      vertex 30 -25.9808 180
    endloop
  endfacet
  facet normal 0.587795 -0.80901 0
    outer loop
      vertex 35.0739 -22.2943 180
      vertex 30 -25.9808 155
      vertex 35.0739 -22.2943 155
    endloop
  endfacet
  facet normal -0.207919 -0.978146 0
    outer loop
      vertex -24.2705 -28.5317 155
      vertex -18.1359 -29.8357 180
      vertex -24.2705 -28.5317 180
    endloop
  endfacet
  facet normal -0.207919 -0.978146 -0
    outer loop
      vertex -18.1359 -29.8357 180
      vertex -24.2705 -28.5317 155
      vertex -18.1359 -29.8357 155
    endloop
  endfacet
  facet normal -0.207919 -0.978146 0
    outer loop
      vertex -24.2705 -28.5317 0
      vertex -18.1359 -29.8357 5
      vertex -24.2705 -28.5317 5
    endloop
  endfacet
  facet normal -0.207919 -0.978146 -0
    outer loop
      vertex -18.1359 -29.8357 5
      vertex -24.2705 -28.5317 0
      vertex -18.1359 -29.8357 0
    endloop
  endfacet
  facet normal -0.951056 -0.309017 -0
    outer loop
      vertex -42.472 -12 155
      vertex -44.3444 -6.23735 0
      vertex -42.472 -12 5
    endloop
  endfacet
  facet normal -0.95106 -0.309008 1.21881e-05
    outer loop
      vertex -42.4064 -12.2021 0
      vertex -42.472 -12 5
      vertex -44.3444 -6.23735 0
    endloop
  endfacet
  facet normal -0.951148 -0.308735 0
    outer loop
      vertex -42.472 -12 5
      vertex -42.4064 -12.2021 0
      vertex -42.4064 -12.2021 5
    endloop
  endfacet
  facet normal -0.951056 -0.309017 0
    outer loop
      vertex -44.3444 -6.23735 0
      vertex -42.472 -12 155
      vertex -44.3444 -6.23735 180
    endloop
  endfacet
  facet normal -0.951148 -0.308735 -0
    outer loop
      vertex -42.4064 -12.2021 180
      vertex -42.472 -12 155
      vertex -42.4064 -12.2021 155
    endloop
  endfacet
  facet normal -0.95106 -0.309008 -2.43762e-06
    outer loop
      vertex -42.472 -12 155
      vertex -42.4064 -12.2021 180
      vertex -44.3444 -6.23735 180
    endloop
  endfacet
  facet normal -0.994521 -0.104533 0
    outer loop
      vertex -44.3444 -6.23735 0
      vertex -45 0 180
      vertex -45 0 0
    endloop
  endfacet
  facet normal -0.994521 -0.104533 0
    outer loop
      vertex -45 0 180
      vertex -44.3444 -6.23735 0
      vertex -44.3444 -6.23735 180
    endloop
  endfacet
  facet normal 1 -0 0
    outer loop
      vertex -30 -10 145
      vertex -30 25.9808 5
      vertex -30 25.9808 145
    endloop
  endfacet
  facet normal 1 0 0
    outer loop
      vertex -30 25.9808 5
      vertex -30 -10 145
      vertex -30 -10 5
    endloop
  endfacet
  facet normal 0 0 -1
    outer loop
      vertex 9.78148 2.07912 145
      vertex 30 25.9808 145
      vertex 30 -10 145
    endloop
  endfacet
  facet normal 0 0 -1
    outer loop
      vertex 8.09017 5.87785 145
      vertex 30 25.9808 145
      vertex 9.13545 4.06737 145
    endloop
  endfacet
  facet normal 0 0 -1
    outer loop
      vertex 9.78148 2.07912 145
      vertex 30 -10 145
      vertex 10 0 145
    endloop
  endfacet
  facet normal 0 0 -1
    outer loop
      vertex 30 -10 145
      vertex 9.78148 -2.07912 145
      vertex 10 0 145
    endloop
  endfacet
  facet normal 0 0 -1
    outer loop
      vertex 30 -10 145
      vertex 9.13545 -4.06737 145
      vertex 9.78148 -2.07912 145
    endloop
  endfacet
  facet normal 0 0 -1
    outer loop
      vertex 30 -10 145
      vertex 8.09017 -5.87785 145
      vertex 9.13545 -4.06737 145
    endloop
  endfacet
  facet normal 0 0 -1
    outer loop
      vertex 30 -10 145
      vertex 6.69131 -7.43145 145
      vertex 8.09017 -5.87785 145
    endloop
  endfacet
  facet normal 0 0 -1
    outer loop
      vertex 30 -10 145
      vertex 5 -8.66025 145
      vertex 6.69131 -7.43145 145
    endloop
  endfacet
  facet normal 0 0 -1
    outer loop
      vertex 30 -10 145
      vertex 3.09017 -9.51056 145
      vertex 5 -8.66025 145
    endloop
  endfacet
  facet normal 0 0 -1
    outer loop
      vertex 30 -10 145
      vertex 1.04528 -9.94522 145
      vertex 3.09017 -9.51056 145
    endloop
  endfacet
  facet normal 0 0 -1
    outer loop
      vertex 30 -10 145
      vertex -1.04528 -9.94522 145
      vertex 1.04528 -9.94522 145
    endloop
  endfacet
  facet normal 0 0 -1
    outer loop
      vertex -30 -10 145
      vertex -10 0 145
      vertex -9.78148 -2.07912 145
    endloop
  endfacet
  facet normal 0 0 -1
    outer loop
      vertex -10 0 145
      vertex -24.2705 28.5317 145
      vertex -18.1359 29.8357 145
    endloop
  endfacet
  facet normal 0 0 -1
    outer loop
      vertex -30 -10 145
      vertex -9.78148 -2.07912 145
      vertex -9.13545 -4.06737 145
    endloop
  endfacet
  facet normal 0 0 -1
    outer loop
      vertex -30 -10 145
      vertex -1.04528 -9.94522 145
      vertex 30 -10 145
    endloop
  endfacet
  facet normal 0 0 -1
    outer loop
      vertex -30 -10 145
      vertex -3.09017 -9.51056 145
      vertex -1.04528 -9.94522 145
    endloop
  endfacet
  facet normal 0 0 -1
    outer loop
      vertex -30 -10 145
      vertex -5 -8.66025 145
      vertex -3.09017 -9.51056 145
    endloop
  endfacet
  facet normal 0 0 -1
    outer loop
      vertex -30 -10 145
      vertex -6.69131 -7.43145 145
      vertex -5 -8.66025 145
    endloop
  endfacet
  facet normal 0 0 -1
    outer loop
      vertex -30 -10 145
      vertex -8.09017 -5.87785 145
      vertex -6.69131 -7.43145 145
    endloop
  endfacet
  facet normal 0 0 -1
    outer loop
      vertex -30 -10 145
      vertex -9.13545 -4.06737 145
      vertex -8.09017 -5.87785 145
    endloop
  endfacet
  facet normal -0 0 -1
    outer loop
      vertex -10 0 145
      vertex -30 -10 145
      vertex -30 25.9808 145
    endloop
  endfacet
  facet normal 0 0 -1
    outer loop
      vertex -10 0 145
      vertex -30 25.9808 145
      vertex -24.2705 28.5317 145
    endloop
  endfacet
  facet normal 0 0 -1
    outer loop
      vertex 30 25.9808 145
      vertex 9.78148 2.07912 145
      vertex 9.13545 4.06737 145
    endloop
  endfacet
  facet normal -0 0 -1
    outer loop
      vertex 30 25.9808 145
      vertex 8.09017 5.87785 145
      vertex 24.2705 28.5317 145
    endloop
  endfacet
  facet normal -0 0 -1
    outer loop
      vertex 24.2705 28.5317 145
      vertex 8.09017 5.87785 145
      vertex 18.1359 29.8357 145
    endloop
  endfacet
  facet normal 0 0 -1
    outer loop
      vertex 6.69131 7.43145 145
      vertex 18.1359 29.8357 145
      vertex 8.09017 5.87785 145
    endloop
  endfacet
  facet normal 0 0 -1
    outer loop
      vertex 5 8.66025 145
      vertex 18.1359 29.8357 145
      vertex 6.69131 7.43145 145
    endloop
  endfacet
  facet normal 0 0 -1
    outer loop
      vertex 3.09017 9.51056 145
      vertex 18.1359 29.8357 145
      vertex 5 8.66025 145
    endloop
  endfacet
  facet normal 0 0 -1
    outer loop
      vertex 1.04528 9.94522 145
      vertex 18.1359 29.8357 145
      vertex 3.09017 9.51056 145
    endloop
  endfacet
  facet normal 0 0 -1
    outer loop
      vertex -1.04528 9.94522 145
      vertex 18.1359 29.8357 145
      vertex 1.04528 9.94522 145
    endloop
  endfacet
  facet normal 0 0 -1
    outer loop
      vertex -18.1359 29.8357 145
      vertex -1.04528 9.94522 145
      vertex -3.09017 9.51056 145
    endloop
  endfacet
  facet normal 0 0 -1
    outer loop
      vertex -18.1359 29.8357 145
      vertex -3.09017 9.51056 145
      vertex -5 8.66025 145
    endloop
  endfacet
  facet normal 0 0 -1
    outer loop
      vertex -18.1359 29.8357 145
      vertex -5 8.66025 145
      vertex -6.69131 7.43145 145
    endloop
  endfacet
  facet normal 0 0 -1
    outer loop
      vertex -1.04528 9.94522 145
      vertex -18.1359 29.8357 145
      vertex 18.1359 29.8357 145
    endloop
  endfacet
  facet normal 0 0 -1
    outer loop
      vertex -8.09017 5.87785 145
      vertex -18.1359 29.8357 145
      vertex -6.69131 7.43145 145
    endloop
  endfacet
  facet normal 0 0 -1
    outer loop
      vertex -9.13545 4.06737 145
      vertex -18.1359 29.8357 145
      vertex -8.09017 5.87785 145
    endloop
  endfacet
  facet normal 0 0 -1
    outer loop
      vertex -9.78148 2.07912 145
      vertex -18.1359 29.8357 145
      vertex -9.13545 4.06737 145
    endloop
  endfacet
  facet normal 0 0 -1
    outer loop
      vertex -18.1359 29.8357 145
      vertex -9.78148 2.07912 145
      vertex -10 0 145
    endloop
  endfacet
  facet normal -1 0 0
    outer loop
      vertex 30 -10 5
      vertex 30 25.9808 145
      vertex 30 25.9808 5
    endloop
  endfacet
  facet normal -1 -0 0
    outer loop
      vertex 30 25.9808 145
      vertex 30 -10 5
      vertex 30 -10 145
    endloop
  endfacet
  facet normal 0 0 1
    outer loop
      vertex 30 -10 5
      vertex 9.78148 2.07912 5
      vertex 10 0 5
    endloop
  endfacet
  facet normal 0 0 1
    outer loop
      vertex 24.2705 28.5317 5
      vertex 9.13545 4.06737 5
      vertex 9.78148 2.07912 5
    endloop
  endfacet
  facet normal 0 0 1
    outer loop
      vertex 24.2705 28.5317 5
      vertex 8.09017 5.87785 5
      vertex 9.13545 4.06737 5
    endloop
  endfacet
  facet normal 0 0 1
    outer loop
      vertex 18.1359 29.8357 5
      vertex 6.69131 7.43145 5
      vertex 8.09017 5.87785 5
    endloop
  endfacet
  facet normal 0 0 1
    outer loop
      vertex 18.1359 29.8357 5
      vertex 5 8.66025 5
      vertex 6.69131 7.43145 5
    endloop
  endfacet
  facet normal 0 0 1
    outer loop
      vertex 18.1359 29.8357 5
      vertex 3.09017 9.51056 5
      vertex 5 8.66025 5
    endloop
  endfacet
  facet normal 0 0 1
    outer loop
      vertex 18.1359 29.8357 5
      vertex 1.04528 9.94522 5
      vertex 3.09017 9.51056 5
    endloop
  endfacet
  facet normal 0 0 1
    outer loop
      vertex 18.1359 29.8357 5
      vertex -1.04528 9.94522 5
      vertex 1.04528 9.94522 5
    endloop
  endfacet
  facet normal -0 0 1
    outer loop
      vertex -18.1359 29.8357 5
      vertex -1.04528 9.94522 5
      vertex 18.1359 29.8357 5
    endloop
  endfacet
  facet normal 0 0 1
    outer loop
      vertex -1.04528 9.94522 5
      vertex -18.1359 29.8357 5
      vertex -3.09017 9.51056 5
    endloop
  endfacet
  facet normal 0 0 1
    outer loop
      vertex -3.09017 9.51056 5
      vertex -18.1359 29.8357 5
      vertex -5 8.66025 5
    endloop
  endfacet
  facet normal 0 0 1
    outer loop
      vertex -8.09017 5.87785 5
      vertex -30 25.9808 5
      vertex -9.13545 4.06737 5
    endloop
  endfacet
  facet normal -0 0 1
    outer loop
      vertex -30 25.9808 5
      vertex -8.09017 5.87785 5
      vertex -24.2705 28.5317 5
    endloop
  endfacet
  facet normal -0 0 1
    outer loop
      vertex -24.2705 28.5317 5
      vertex -8.09017 5.87785 5
      vertex -18.1359 29.8357 5
    endloop
  endfacet
  facet normal 0 0 1
    outer loop
      vertex -6.69131 7.43145 5
      vertex -18.1359 29.8357 5
      vertex -8.09017 5.87785 5
    endloop
  endfacet
  facet normal 0 0 1
    outer loop
      vertex -5 8.66025 5
      vertex -18.1359 29.8357 5
      vertex -6.69131 7.43145 5
    endloop
  endfacet
  facet normal 0 0 1
    outer loop
      vertex 9.78148 2.07912 5
      vertex 30 25.9808 5
      vertex 24.2705 28.5317 5
    endloop
  endfacet
  facet normal 0 0 1
    outer loop
      vertex 8.09017 5.87785 5
      vertex 24.2705 28.5317 5
      vertex 18.1359 29.8357 5
    endloop
  endfacet
  facet normal -0 0 1
    outer loop
      vertex 9.78148 2.07912 5
      vertex 30 -10 5
      vertex 30 25.9808 5
    endloop
  endfacet
  facet normal -0 0 1
    outer loop
      vertex 9.78148 -2.07912 5
      vertex 30 -10 5
      vertex 10 0 5
    endloop
  endfacet
  facet normal -0 0 1
    outer loop
      vertex 9.13545 -4.06737 5
      vertex 30 -10 5
      vertex 9.78148 -2.07912 5
    endloop
  endfacet
  facet normal -0 0 1
    outer loop
      vertex 8.09017 -5.87785 5
      vertex 30 -10 5
      vertex 9.13545 -4.06737 5
    endloop
  endfacet
  facet normal -0 0 1
    outer loop
      vertex 6.69131 -7.43145 5
      vertex 30 -10 5
      vertex 8.09017 -5.87785 5
    endloop
  endfacet
  facet normal -0 0 1
    outer loop
      vertex 5 -8.66025 5
      vertex 30 -10 5
      vertex 6.69131 -7.43145 5
    endloop
  endfacet
  facet normal -0 0 1
    outer loop
      vertex 3.09017 -9.51056 5
      vertex 30 -10 5
      vertex 5 -8.66025 5
    endloop
  endfacet
  facet normal -0 0 1
    outer loop
      vertex 1.04528 -9.94522 5
      vertex 30 -10 5
      vertex 3.09017 -9.51056 5
    endloop
  endfacet
  facet normal -0 0 1
    outer loop
      vertex -1.04528 -9.94522 5
      vertex 30 -10 5
      vertex 1.04528 -9.94522 5
    endloop
  endfacet
  facet normal 0 0 1
    outer loop
      vertex -9.13545 4.06737 5
      vertex -30 25.9808 5
      vertex -9.78148 2.07912 5
    endloop
  endfacet
  facet normal 0 0 1
    outer loop
      vertex -30 -10 5
      vertex -9.78148 2.07912 5
      vertex -30 25.9808 5
    endloop
  endfacet
  facet normal 0 0 1
    outer loop
      vertex -9.78148 2.07912 5
      vertex -30 -10 5
      vertex -10 0 5
    endloop
  endfacet
  facet normal 0 0 1
    outer loop
      vertex -10 0 5
      vertex -30 -10 5
      vertex -9.78148 -2.07912 5
    endloop
  endfacet
  facet normal 0 0 1
    outer loop
      vertex -9.78148 -2.07912 5
      vertex -30 -10 5
      vertex -9.13545 -4.06737 5
    endloop
  endfacet
  facet normal 0 0 1
    outer loop
      vertex -1.04528 -9.94522 5
      vertex -30 -10 5
      vertex 30 -10 5
    endloop
  endfacet
  facet normal 0 0 1
    outer loop
      vertex -3.09017 -9.51056 5
      vertex -30 -10 5
      vertex -1.04528 -9.94522 5
    endloop
  endfacet
  facet normal 0 0 1
    outer loop
      vertex -5 -8.66025 5
      vertex -30 -10 5
      vertex -3.09017 -9.51056 5
    endloop
  endfacet
  facet normal 0 0 1
    outer loop
      vertex -6.69131 -7.43145 5
      vertex -30 -10 5
      vertex -5 -8.66025 5
    endloop
  endfacet
  facet normal 0 0 1
    outer loop
      vertex -8.09017 -5.87785 5
      vertex -30 -10 5
      vertex -6.69131 -7.43145 5
    endloop
  endfacet
  facet normal 0 0 1
    outer loop
      vertex -9.13545 -4.06737 5
      vertex -30 -10 5
      vertex -8.09017 -5.87785 5
    endloop
  endfacet
  facet normal 0 1 -0
    outer loop
      vertex 30 -10 5
      vertex -30 -10 145
      vertex 30 -10 145
    endloop
  endfacet
  facet normal 0 1 0
    outer loop
      vertex -30 -10 145
      vertex 30 -10 5
      vertex -30 -10 5
    endloop
  endfacet
  facet normal 1 -0 0
    outer loop
      vertex -30 20 180
      vertex -30 25.9808 160
      vertex -30 25.9808 180
    endloop
  endfacet
  facet normal 1 0 0
    outer loop
      vertex -30 25.9808 160
      vertex -30 20 180
      vertex -30 20 160
    endloop
  endfacet
  facet normal -1 0 0
    outer loop
      vertex 30 20 160
      vertex 30 25.9808 180
      vertex 30 25.9808 160
    endloop
  endfacet
  facet normal -1 -0 0
    outer loop
      vertex 30 25.9808 180
      vertex 30 20 160
      vertex 30 20 180
    endloop
  endfacet
  facet normal 0 0 1
    outer loop
      vertex 24.2705 28.5317 160
      vertex 30 20 160
      vertex 30 25.9808 160
    endloop
  endfacet
  facet normal 0 0 1
    outer loop
      vertex 18.1359 29.8357 160
      vertex 30 20 160
      vertex 24.2705 28.5317 160
    endloop
  endfacet
  facet normal -0 0 1
    outer loop
      vertex -18.1359 29.8357 160
      vertex 30 20 160
      vertex 18.1359 29.8357 160
    endloop
  endfacet
  facet normal 0 0 1
    outer loop
      vertex -30 20 160
      vertex -18.1359 29.8357 160
      vertex -24.2705 28.5317 160
    endloop
  endfacet
  facet normal 0 0 1
    outer loop
      vertex -30 20 160
      vertex -24.2705 28.5317 160
      vertex -30 25.9808 160
    endloop
  endfacet
  facet normal 0 0 1
    outer loop
      vertex -18.1359 29.8357 160
      vertex -30 20 160
      vertex 30 20 160
    endloop
  endfacet
  facet normal 0 1 -0
    outer loop
      vertex 30 20 160
      vertex -30 20 180
      vertex 30 20 180
    endloop
  endfacet
  facet normal 0 1 0
    outer loop
      vertex -30 20 180
      vertex 30 20 160
      vertex -30 20 160
    endloop
  endfacet
  facet normal -0.866026 -0.5 0
    outer loop
      vertex 9.13545 4.06737 0
      vertex 8.09017 5.87785 5
      vertex 8.09017 5.87785 0
    endloop
  endfacet
  facet normal -0.866026 -0.5 0
    outer loop
      vertex 8.09017 5.87785 5
      vertex 9.13545 4.06737 0
      vertex 9.13545 4.06737 5
    endloop
  endfacet
  facet normal -0.866026 -0.5 0
    outer loop
      vertex 9.13545 4.06737 145
      vertex 8.09017 5.87785 180
      vertex 8.09017 5.87785 145
    endloop
  endfacet
  facet normal -0.866026 -0.5 0
    outer loop
      vertex 8.09017 5.87785 180
      vertex 9.13545 4.06737 145
      vertex 9.13545 4.06737 180
    endloop
  endfacet
  facet normal 0.951055 -0.309021 0
    outer loop
      vertex -9.78148 2.07912 5
      vertex -9.13545 4.06737 0
      vertex -9.13545 4.06737 5
    endloop
  endfacet
  facet normal 0.951055 -0.309021 0
    outer loop
      vertex -9.13545 4.06737 0
      vertex -9.78148 2.07912 5
      vertex -9.78148 2.07912 0
    endloop
  endfacet
  facet normal 0.951055 -0.309021 0
    outer loop
      vertex -9.78148 2.07912 180
      vertex -9.13545 4.06737 145
      vertex -9.13545 4.06737 180
    endloop
  endfacet
  facet normal 0.951055 -0.309021 0
    outer loop
      vertex -9.13545 4.06737 145
      vertex -9.78148 2.07912 180
      vertex -9.78148 2.07912 145
    endloop
  endfacet
  facet normal -0.743147 -0.669129 0
    outer loop
      vertex 8.09017 5.87785 0
      vertex 6.69131 7.43145 5
      vertex 6.69131 7.43145 0
    endloop
  endfacet
  facet normal -0.743147 -0.669129 0
    outer loop
      vertex 6.69131 7.43145 5
      vertex 8.09017 5.87785 0
      vertex 8.09017 5.87785 5
    endloop
  endfacet
  facet normal -0.743147 -0.669129 0
    outer loop
      vertex 8.09017 5.87785 145
      vertex 6.69131 7.43145 180
      vertex 6.69131 7.43145 145
    endloop
  endfacet
  facet normal -0.743147 -0.669129 0
    outer loop
      vertex 6.69131 7.43145 180
      vertex 8.09017 5.87785 145
      vertex 8.09017 5.87785 180
    endloop
  endfacet
  facet normal -0.207914 -0.978147 0
    outer loop
      vertex 1.04528 9.94522 0
      vertex 3.09017 9.51056 5
      vertex 1.04528 9.94522 5
    endloop
  endfacet
  facet normal -0.207914 -0.978147 -0
    outer loop
      vertex 3.09017 9.51056 5
      vertex 1.04528 9.94522 0
      vertex 3.09017 9.51056 0
    endloop
  endfacet
  facet normal -0.207914 -0.978147 0
    outer loop
      vertex 1.04528 9.94522 145
      vertex 3.09017 9.51056 180
      vertex 1.04528 9.94522 180
    endloop
  endfacet
  facet normal -0.207914 -0.978147 -0
    outer loop
      vertex 3.09017 9.51056 180
      vertex 1.04528 9.94522 145
      vertex 3.09017 9.51056 145
    endloop
  endfacet
  facet normal -0.406736 -0.913546 0
    outer loop
      vertex 3.09017 9.51056 0
      vertex 5 8.66025 5
      vertex 3.09017 9.51056 5
    endloop
  endfacet
  facet normal -0.406736 -0.913546 -0
    outer loop
      vertex 5 8.66025 5
      vertex 3.09017 9.51056 0
      vertex 5 8.66025 0
    endloop
  endfacet
  facet normal -0.406736 -0.913546 0
    outer loop
      vertex 3.09017 9.51056 145
      vertex 5 8.66025 180
      vertex 3.09017 9.51056 180
    endloop
  endfacet
  facet normal -0.406736 -0.913546 -0
    outer loop
      vertex 5 8.66025 180
      vertex 3.09017 9.51056 145
      vertex 5 8.66025 145
    endloop
  endfacet
  facet normal 0.406736 -0.913546 0
    outer loop
      vertex -5 8.66025 0
      vertex -3.09017 9.51056 5
      vertex -5 8.66025 5
    endloop
  endfacet
  facet normal 0.406736 -0.913546 0
    outer loop
      vertex -3.09017 9.51056 5
      vertex -5 8.66025 0
      vertex -3.09017 9.51056 0
    endloop
  endfacet
  facet normal 0.406736 -0.913546 0
    outer loop
      vertex -5 8.66025 145
      vertex -3.09017 9.51056 180
      vertex -5 8.66025 180
    endloop
  endfacet
  facet normal 0.406736 -0.913546 0
    outer loop
      vertex -3.09017 9.51056 180
      vertex -5 8.66025 145
      vertex -3.09017 9.51056 145
    endloop
  endfacet
  facet normal -0.994522 0.104526 0
    outer loop
      vertex 9.78148 -2.07912 0
      vertex 10 0 5
      vertex 10 0 0
    endloop
  endfacet
  facet normal -0.994522 0.104526 0
    outer loop
      vertex 10 0 5
      vertex 9.78148 -2.07912 0
      vertex 9.78148 -2.07912 5
    endloop
  endfacet
  facet normal -0.994522 0.104526 0
    outer loop
      vertex 9.78148 -2.07912 145
      vertex 10 0 180
      vertex 10 0 145
    endloop
  endfacet
  facet normal -0.994522 0.104526 0
    outer loop
      vertex 10 0 180
      vertex 9.78148 -2.07912 145
      vertex 9.78148 -2.07912 180
    endloop
  endfacet
  facet normal -0.951055 -0.309021 0
    outer loop
      vertex 9.78148 2.07912 0
      vertex 9.13545 4.06737 5
      vertex 9.13545 4.06737 0
    endloop
  endfacet
  facet normal -0.951055 -0.309021 0
    outer loop
      vertex 9.13545 4.06737 5
      vertex 9.78148 2.07912 0
      vertex 9.78148 2.07912 5
    endloop
  endfacet
  facet normal -0.951055 -0.309021 0
    outer loop
      vertex 9.78148 2.07912 145
      vertex 9.13545 4.06737 180
      vertex 9.13545 4.06737 145
    endloop
  endfacet
  facet normal -0.951055 -0.309021 0
    outer loop
      vertex 9.13545 4.06737 180
      vertex 9.78148 2.07912 145
      vertex 9.78148 2.07912 180
    endloop
  endfacet
  facet normal -0.587783 -0.809019 0
    outer loop
      vertex 5 8.66025 0
      vertex 6.69131 7.43145 5
      vertex 5 8.66025 5
    endloop
  endfacet
  facet normal -0.587783 -0.809019 -0
    outer loop
      vertex 6.69131 7.43145 5
      vertex 5 8.66025 0
      vertex 6.69131 7.43145 0
    endloop
  endfacet
  facet normal -0.587783 -0.809019 0
    outer loop
      vertex 5 8.66025 145
      vertex 6.69131 7.43145 180
      vertex 5 8.66025 180
    endloop
  endfacet
  facet normal -0.587783 -0.809019 -0
    outer loop
      vertex 6.69131 7.43145 180
      vertex 5 8.66025 145
      vertex 6.69131 7.43145 145
    endloop
  endfacet
  facet normal 0 -1 0
    outer loop
      vertex -1.04528 9.94522 0
      vertex 1.04528 9.94522 5
      vertex -1.04528 9.94522 5
    endloop
  endfacet
  facet normal 0 -1 -0
    outer loop
      vertex 1.04528 9.94522 5
      vertex -1.04528 9.94522 0
      vertex 1.04528 9.94522 0
    endloop
  endfacet
  facet normal 0 -1 0
    outer loop
      vertex -1.04528 9.94522 145
      vertex 1.04528 9.94522 180
      vertex -1.04528 9.94522 180
    endloop
  endfacet
  facet normal 0 -1 -0
    outer loop
      vertex 1.04528 9.94522 180
      vertex -1.04528 9.94522 145
      vertex 1.04528 9.94522 145
    endloop
  endfacet
  facet normal 0.994522 -0.104526 0
    outer loop
      vertex -10 0 5
      vertex -9.78148 2.07912 0
      vertex -9.78148 2.07912 5
    endloop
  endfacet
  facet normal 0.994522 -0.104526 0
    outer loop
      vertex -9.78148 2.07912 0
      vertex -10 0 5
      vertex -10 0 0
    endloop
  endfacet
  facet normal 0.994522 -0.104526 0
    outer loop
      vertex -10 0 180
      vertex -9.78148 2.07912 145
      vertex -9.78148 2.07912 180
    endloop
  endfacet
  facet normal 0.994522 -0.104526 0
    outer loop
      vertex -9.78148 2.07912 145
      vertex -10 0 180
      vertex -10 0 145
    endloop
  endfacet
  facet normal 0.866026 -0.5 0
    outer loop
      vertex -9.13545 4.06737 5
      vertex -8.09017 5.87785 0
      vertex -8.09017 5.87785 5
    endloop
  endfacet
  facet normal 0.866026 -0.5 0
    outer loop
      vertex -8.09017 5.87785 0
      vertex -9.13545 4.06737 5
      vertex -9.13545 4.06737 0
    endloop
  endfacet
  facet normal 0.866026 -0.5 0
    outer loop
      vertex -9.13545 4.06737 180
      vertex -8.09017 5.87785 145
      vertex -8.09017 5.87785 180
    endloop
  endfacet
  facet normal 0.866026 -0.5 0
    outer loop
      vertex -8.09017 5.87785 145
      vertex -9.13545 4.06737 180
      vertex -9.13545 4.06737 145
    endloop
  endfacet
  facet normal 0.587783 -0.809019 0
    outer loop
      vertex -6.69131 7.43145 0
      vertex -5 8.66025 5
      vertex -6.69131 7.43145 5
    endloop
  endfacet
  facet normal 0.587783 -0.809019 0
    outer loop
      vertex -5 8.66025 5
      vertex -6.69131 7.43145 0
      vertex -5 8.66025 0
    endloop
  endfacet
  facet normal 0.587783 -0.809019 0
    outer loop
      vertex -6.69131 7.43145 145
      vertex -5 8.66025 180
      vertex -6.69131 7.43145 180
    endloop
  endfacet
  facet normal 0.587783 -0.809019 0
    outer loop
      vertex -5 8.66025 180
      vertex -6.69131 7.43145 145
      vertex -5 8.66025 145
    endloop
  endfacet
  facet normal 0.207914 -0.978147 0
    outer loop
      vertex -3.09017 9.51056 0
      vertex -1.04528 9.94522 5
      vertex -3.09017 9.51056 5
    endloop
  endfacet
  facet normal 0.207914 -0.978147 0
    outer loop
      vertex -1.04528 9.94522 5
      vertex -3.09017 9.51056 0
      vertex -1.04528 9.94522 0
    endloop
  endfacet
  facet normal 0.207914 -0.978147 0
    outer loop
      vertex -3.09017 9.51056 145
      vertex -1.04528 9.94522 180
      vertex -3.09017 9.51056 180
    endloop
  endfacet
  facet normal 0.207914 -0.978147 0
    outer loop
      vertex -1.04528 9.94522 180
      vertex -3.09017 9.51056 145
      vertex -1.04528 9.94522 145
    endloop
  endfacet
  facet normal 0.743147 -0.669129 0
    outer loop
      vertex -8.09017 5.87785 5
      vertex -6.69131 7.43145 0
      vertex -6.69131 7.43145 5
    endloop
  endfacet
  facet normal 0.743147 -0.669129 0
    outer loop
      vertex -6.69131 7.43145 0
      vertex -8.09017 5.87785 5
      vertex -8.09017 5.87785 0
    endloop
  endfacet
  facet normal 0.743147 -0.669129 0
    outer loop
      vertex -8.09017 5.87785 180
      vertex -6.69131 7.43145 145
      vertex -6.69131 7.43145 180
    endloop
  endfacet
  facet normal 0.743147 -0.669129 0
    outer loop
      vertex -6.69131 7.43145 145
      vertex -8.09017 5.87785 180
      vertex -8.09017 5.87785 145
    endloop
  endfacet
  facet normal -0.994522 -0.104526 0
    outer loop
      vertex 10 0 0
      vertex 9.78148 2.07912 5
      vertex 9.78148 2.07912 0
    endloop
  endfacet
  facet normal -0.994522 -0.104526 0
    outer loop
      vertex 9.78148 2.07912 5
      vertex 10 0 0
      vertex 10 0 5
    endloop
  endfacet
  facet normal -0.994522 -0.104526 0
    outer loop
      vertex 10 0 145
      vertex 9.78148 2.07912 180
      vertex 9.78148 2.07912 145
    endloop
  endfacet
  facet normal -0.994522 -0.104526 0
    outer loop
      vertex 9.78148 2.07912 180
      vertex 10 0 145
      vertex 10 0 180
    endloop
  endfacet
  facet normal 0.866026 0.5 0
    outer loop
      vertex -8.09017 -5.87785 5
      vertex -9.13545 -4.06737 0
      vertex -9.13545 -4.06737 5
    endloop
  endfacet
  facet normal 0.866026 0.5 0
    outer loop
      vertex -9.13545 -4.06737 0
      vertex -8.09017 -5.87785 5
      vertex -8.09017 -5.87785 0
    endloop
  endfacet
  facet normal 0.866026 0.5 0
    outer loop
      vertex -8.09017 -5.87785 180
      vertex -9.13545 -4.06737 145
      vertex -9.13545 -4.06737 180
    endloop
  endfacet
  facet normal 0.866026 0.5 0
    outer loop
      vertex -9.13545 -4.06737 145
      vertex -8.09017 -5.87785 180
      vertex -8.09017 -5.87785 145
    endloop
  endfacet
  facet normal -0.587783 0.809019 0
    outer loop
      vertex 6.69131 -7.43145 0
      vertex 5 -8.66025 5
      vertex 6.69131 -7.43145 5
    endloop
  endfacet
  facet normal -0.587783 0.809019 0
    outer loop
      vertex 5 -8.66025 5
      vertex 6.69131 -7.43145 0
      vertex 5 -8.66025 0
    endloop
  endfacet
  facet normal -0.587783 0.809019 0
    outer loop
      vertex 6.69131 -7.43145 145
      vertex 5 -8.66025 180
      vertex 6.69131 -7.43145 180
    endloop
  endfacet
  facet normal -0.587783 0.809019 0
    outer loop
      vertex 5 -8.66025 180
      vertex 6.69131 -7.43145 145
      vertex 5 -8.66025 145
    endloop
  endfacet
  facet normal -0.866026 0.5 0
    outer loop
      vertex 8.09017 -5.87785 0
      vertex 9.13545 -4.06737 5
      vertex 9.13545 -4.06737 0
    endloop
  endfacet
  facet normal -0.866026 0.5 0
    outer loop
      vertex 9.13545 -4.06737 5
      vertex 8.09017 -5.87785 0
      vertex 8.09017 -5.87785 5
    endloop
  endfacet
  facet normal -0.866026 0.5 0
    outer loop
      vertex 8.09017 -5.87785 145
      vertex 9.13545 -4.06737 180
      vertex 9.13545 -4.06737 145
    endloop
  endfacet
  facet normal -0.866026 0.5 0
    outer loop
      vertex 9.13545 -4.06737 180
      vertex 8.09017 -5.87785 145
      vertex 8.09017 -5.87785 180
    endloop
  endfacet
  facet normal 0 1 -0
    outer loop
      vertex 1.04528 -9.94522 0
      vertex -1.04528 -9.94522 5
      vertex 1.04528 -9.94522 5
    endloop
  endfacet
  facet normal 0 1 0
    outer loop
      vertex -1.04528 -9.94522 5
      vertex 1.04528 -9.94522 0
      vertex -1.04528 -9.94522 0
    endloop
  endfacet
  facet normal 0 1 -0
    outer loop
      vertex 1.04528 -9.94522 145
      vertex -1.04528 -9.94522 180
      vertex 1.04528 -9.94522 180
    endloop
  endfacet
  facet normal 0 1 0
    outer loop
      vertex -1.04528 -9.94522 180
      vertex 1.04528 -9.94522 145
      vertex -1.04528 -9.94522 145
    endloop
  endfacet
  facet normal 0.994522 0.104526 0
    outer loop
      vertex -9.78148 -2.07912 5
      vertex -10 0 0
      vertex -10 0 5
    endloop
  endfacet
  facet normal 0.994522 0.104526 0
    outer loop
      vertex -10 0 0
      vertex -9.78148 -2.07912 5
      vertex -9.78148 -2.07912 0
    endloop
  endfacet
  facet normal 0.994522 0.104526 0
    outer loop
      vertex -9.78148 -2.07912 180
      vertex -10 0 145
      vertex -10 0 180
    endloop
  endfacet
  facet normal 0.994522 0.104526 0
    outer loop
      vertex -10 0 145
      vertex -9.78148 -2.07912 180
      vertex -9.78148 -2.07912 145
    endloop
  endfacet
  facet normal -0.207914 0.978147 0
    outer loop
      vertex 3.09017 -9.51056 0
      vertex 1.04528 -9.94522 5
      vertex 3.09017 -9.51056 5
    endloop
  endfacet
  facet normal -0.207914 0.978147 0
    outer loop
      vertex 1.04528 -9.94522 5
      vertex 3.09017 -9.51056 0
      vertex 1.04528 -9.94522 0
    endloop
  endfacet
  facet normal -0.207914 0.978147 0
    outer loop
      vertex 3.09017 -9.51056 145
      vertex 1.04528 -9.94522 180
      vertex 3.09017 -9.51056 180
    endloop
  endfacet
  facet normal -0.207914 0.978147 0
    outer loop
      vertex 1.04528 -9.94522 180
      vertex 3.09017 -9.51056 145
      vertex 1.04528 -9.94522 145
    endloop
  endfacet
  facet normal -0.406736 0.913546 0
    outer loop
      vertex 5 -8.66025 0
      vertex 3.09017 -9.51056 5
      vertex 5 -8.66025 5
    endloop
  endfacet
  facet normal -0.406736 0.913546 0
    outer loop
      vertex 3.09017 -9.51056 5
      vertex 5 -8.66025 0
      vertex 3.09017 -9.51056 0
    endloop
  endfacet
  facet normal -0.406736 0.913546 0
    outer loop
      vertex 5 -8.66025 145
      vertex 3.09017 -9.51056 180
      vertex 5 -8.66025 180
    endloop
  endfacet
  facet normal -0.406736 0.913546 0
    outer loop
      vertex 3.09017 -9.51056 180
      vertex 5 -8.66025 145
      vertex 3.09017 -9.51056 145
    endloop
  endfacet
  facet normal -0.951055 0.309021 0
    outer loop
      vertex 9.13545 -4.06737 0
      vertex 9.78148 -2.07912 5
      vertex 9.78148 -2.07912 0
    endloop
  endfacet
  facet normal -0.951055 0.309021 0
    outer loop
      vertex 9.78148 -2.07912 5
      vertex 9.13545 -4.06737 0
      vertex 9.13545 -4.06737 5
    endloop
  endfacet
  facet normal -0.951055 0.309021 0
    outer loop
      vertex 9.13545 -4.06737 145
      vertex 9.78148 -2.07912 180
      vertex 9.78148 -2.07912 145
    endloop
  endfacet
  facet normal -0.951055 0.309021 0
    outer loop
      vertex 9.78148 -2.07912 180
      vertex 9.13545 -4.06737 145
      vertex 9.13545 -4.06737 180
    endloop
  endfacet
  facet normal 0.207914 0.978147 -0
    outer loop
      vertex -1.04528 -9.94522 0
      vertex -3.09017 -9.51056 5
      vertex -1.04528 -9.94522 5
    endloop
  endfacet
  facet normal 0.207914 0.978147 0
    outer loop
      vertex -3.09017 -9.51056 5
      vertex -1.04528 -9.94522 0
      vertex -3.09017 -9.51056 0
    endloop
  endfacet
  facet normal 0.207914 0.978147 -0
    outer loop
      vertex -1.04528 -9.94522 145
      vertex -3.09017 -9.51056 180
      vertex -1.04528 -9.94522 180
    endloop
  endfacet
  facet normal 0.207914 0.978147 0
    outer loop
      vertex -3.09017 -9.51056 180
      vertex -1.04528 -9.94522 145
      vertex -3.09017 -9.51056 145
    endloop
  endfacet
  facet normal 0.951055 0.309021 0
    outer loop
      vertex -9.13545 -4.06737 5
      vertex -9.78148 -2.07912 0
      vertex -9.78148 -2.07912 5
    endloop
  endfacet
  facet normal 0.951055 0.309021 0
    outer loop
      vertex -9.78148 -2.07912 0
      vertex -9.13545 -4.06737 5
      vertex -9.13545 -4.06737 0
    endloop
  endfacet
  facet normal 0.951055 0.309021 0
    outer loop
      vertex -9.13545 -4.06737 180
      vertex -9.78148 -2.07912 145
      vertex -9.78148 -2.07912 180
    endloop
  endfacet
  facet normal 0.951055 0.309021 0
    outer loop
      vertex -9.78148 -2.07912 145
      vertex -9.13545 -4.06737 180
      vertex -9.13545 -4.06737 145
    endloop
  endfacet
  facet normal 0.743147 0.669129 0
    outer loop
      vertex -6.69131 -7.43145 5
      vertex -8.09017 -5.87785 0
      vertex -8.09017 -5.87785 5
    endloop
  endfacet
  facet normal 0.743147 0.669129 0
    outer loop
      vertex -8.09017 -5.87785 0
      vertex -6.69131 -7.43145 5
      vertex -6.69131 -7.43145 0
    endloop
  endfacet
  facet normal 0.743147 0.669129 0
    outer loop
      vertex -6.69131 -7.43145 180
      vertex -8.09017 -5.87785 145
      vertex -8.09017 -5.87785 180
    endloop
  endfacet
  facet normal 0.743147 0.669129 0
    outer loop
      vertex -8.09017 -5.87785 145
      vertex -6.69131 -7.43145 180
      vertex -6.69131 -7.43145 145
    endloop
  endfacet
  facet normal -0.743147 0.669129 0
    outer loop
      vertex 6.69131 -7.43145 0
      vertex 8.09017 -5.87785 5
      vertex 8.09017 -5.87785 0
    endloop
  endfacet
  facet normal -0.743147 0.669129 0
    outer loop
      vertex 8.09017 -5.87785 5
      vertex 6.69131 -7.43145 0
      vertex 6.69131 -7.43145 5
    endloop
  endfacet
  facet normal -0.743147 0.669129 0
    outer loop
      vertex 6.69131 -7.43145 145
      vertex 8.09017 -5.87785 180
      vertex 8.09017 -5.87785 145
    endloop
  endfacet
  facet normal -0.743147 0.669129 0
    outer loop
      vertex 8.09017 -5.87785 180
      vertex 6.69131 -7.43145 145
      vertex 6.69131 -7.43145 180
    endloop
  endfacet
  facet normal 0.406736 0.913546 -0
    outer loop
      vertex -3.09017 -9.51056 0
      vertex -5 -8.66025 5
      vertex -3.09017 -9.51056 5
    endloop
  endfacet
  facet normal 0.406736 0.913546 0
    outer loop
      vertex -5 -8.66025 5
      vertex -3.09017 -9.51056 0
      vertex -5 -8.66025 0
    endloop
  endfacet
  facet normal 0.406736 0.913546 -0
    outer loop
      vertex -3.09017 -9.51056 145
      vertex -5 -8.66025 180
      vertex -3.09017 -9.51056 180
    endloop
  endfacet
  facet normal 0.406736 0.913546 0
    outer loop
      vertex -5 -8.66025 180
      vertex -3.09017 -9.51056 145
      vertex -5 -8.66025 145
    endloop
  endfacet
  facet normal 0.587783 0.809019 -0
    outer loop
      vertex -5 -8.66025 0
      vertex -6.69131 -7.43145 5
      vertex -5 -8.66025 5
    endloop
  endfacet
  facet normal 0.587783 0.809019 0
    outer loop
      vertex -6.69131 -7.43145 5
      vertex -5 -8.66025 0
      vertex -6.69131 -7.43145 0
    endloop
  endfacet
  facet normal 0.587783 0.809019 -0
    outer loop
      vertex -5 -8.66025 145
      vertex -6.69131 -7.43145 180
      vertex -5 -8.66025 180
    endloop
  endfacet
  facet normal 0.587783 0.809019 0
    outer loop
      vertex -6.69131 -7.43145 180
      vertex -5 -8.66025 145
      vertex -6.69131 -7.43145 145
    endloop
  endfacet
  facet normal 0 0 -1
    outer loop
      vertex 39.2705 -17.6336 155
      vertex 42.472 -12 155
      vertex 42.4064 -12.2021 155
    endloop
  endfacet
  facet normal 0 0 -1
    outer loop
      vertex 35.0739 -22.2943 155
      vertex 42.472 -12 155
      vertex 39.2705 -17.6336 155
    endloop
  endfacet
  facet normal 0 0 -1
    outer loop
      vertex 30 -25.9808 155
      vertex 42.472 -12 155
      vertex 35.0739 -22.2943 155
    endloop
  endfacet
  facet normal 0 0 -1
    outer loop
      vertex 24.2705 -28.5317 155
      vertex 42.472 -12 155
      vertex 30 -25.9808 155
    endloop
  endfacet
  facet normal 0 0 -1
    outer loop
      vertex 18.1359 -29.8357 155
      vertex 42.472 -12 155
      vertex 24.2705 -28.5317 155
    endloop
  endfacet
  facet normal 0 0 -1
    outer loop
      vertex -18.1359 -29.8357 155
      vertex 42.472 -12 155
      vertex 18.1359 -29.8357 155
    endloop
  endfacet
  facet normal 0 0 -1
    outer loop
      vertex -42.472 -12 155
      vertex -18.1359 -29.8357 155
      vertex -24.2705 -28.5317 155
    endloop
  endfacet
  facet normal 0 0 -1
    outer loop
      vertex -42.472 -12 155
      vertex -24.2705 -28.5317 155
      vertex -30 -25.9808 155
    endloop
  endfacet
  facet normal 0 0 -1
    outer loop
      vertex -42.472 -12 155
      vertex -30 -25.9808 155
      vertex -35.0739 -22.2943 155
    endloop
  endfacet
  facet normal 0 0 -1
    outer loop
      vertex -42.472 -12 155
      vertex -35.0739 -22.2943 155
      vertex -39.2705 -17.6336 155
    endloop
  endfacet
  facet normal 0 0 -1
    outer loop
      vertex -42.472 -12 155
      vertex -39.2705 -17.6336 155
      vertex -42.4064 -12.2021 155
    endloop
  endfacet
  facet normal 0 0 -1
    outer loop
      vertex -18.1359 -29.8357 155
      vertex -42.472 -12 155
      vertex 42.472 -12 155
    endloop
  endfacet
  facet normal 0 -1 0
    outer loop
      vertex -42.472 -12 5
      vertex 42.472 -12 155
      vertex -42.472 -12 155
    endloop
  endfacet
  facet normal 0 -1 -0
    outer loop
      vertex 42.472 -12 155
      vertex -42.472 -12 5
      vertex 42.472 -12 5
    endloop
  endfacet
  facet normal 0 0 1
    outer loop
      vertex 42.472 -12 5
      vertex 39.2705 -17.6336 5
      vertex 42.4064 -12.2021 5
    endloop
  endfacet
  facet normal 0 0 1
    outer loop
      vertex 42.472 -12 5
      vertex 35.0739 -22.2943 5
      vertex 39.2705 -17.6336 5
    endloop
  endfacet
  facet normal 0 0 1
    outer loop
      vertex 42.472 -12 5
      vertex 30 -25.9808 5
      vertex 35.0739 -22.2943 5
    endloop
  endfacet
  facet normal 0 0 1
    outer loop
      vertex 42.472 -12 5
      vertex 24.2705 -28.5317 5
      vertex 30 -25.9808 5
    endloop
  endfacet
  facet normal 0 0 1
    outer loop
      vertex 42.472 -12 5
      vertex 18.1359 -29.8357 5
      vertex 24.2705 -28.5317 5
    endloop
  endfacet
  facet normal 0 0 1
    outer loop
      vertex 42.472 -12 5
      vertex -18.1359 -29.8357 5
      vertex 18.1359 -29.8357 5
    endloop
  endfacet
  facet normal -0 0 1
    outer loop
      vertex -42.472 -12 5
      vertex -18.1359 -29.8357 5
      vertex 42.472 -12 5
    endloop
  endfacet
  facet normal 0 0 1
    outer loop
      vertex -18.1359 -29.8357 5
      vertex -42.472 -12 5
      vertex -24.2705 -28.5317 5
    endloop
  endfacet
  facet normal 0 0 1
    outer loop
      vertex -24.2705 -28.5317 5
      vertex -42.472 -12 5
      vertex -30 -25.9808 5
    endloop
  endfacet
  facet normal 0 0 1
    outer loop
      vertex -30 -25.9808 5
      vertex -42.472 -12 5
      vertex -35.0739 -22.2943 5
    endloop
  endfacet
  facet normal 0 0 1
    outer loop
      vertex -35.0739 -22.2943 5
      vertex -42.472 -12 5
      vertex -39.2705 -17.6336 5
    endloop
  endfacet
  facet normal 0 0 1
    outer loop
      vertex -39.2705 -17.6336 5
      vertex -42.472 -12 5
      vertex -42.4064 -12.2021 5
    endloop
  endfacet
endsolid OpenSCAD_Model
